<svg width="294" height="75" viewBox="0 0 294 75" fill="none" xmlns="http://www.w3.org/2000/svg">
<path d="M54.1801 3.82499C53.1301 4.06499 51.0001 5.03999 50.3851 5.57999C50.1601 5.77499 49.6651 6.19499 49.2751 6.52499C48.8851 6.85499 48.3901 7.28999 48.1651 7.49999C44.9101 10.485 43.4551 11.79 43.1551 11.985C42.9451 12.12 42.4051 12.48 41.9401 12.795C38.5651 15.03 35.5501 15.795 28.5901 16.2L25.9051 16.35L25.2451 15.975C24.9001 15.765 24.6001 15.555 24.6001 15.525C24.6001 15.495 24.9001 15.255 25.2601 15C25.8301 14.625 26.1451 14.52 27.3751 14.4C28.7701 14.25 29.8201 14.01 33.1501 13.035C36.2701 12.12 36.5851 11.955 37.0351 11.1L37.3351 10.515L36.7051 10.29C36.3001 10.155 35.2351 10.035 33.7501 9.98999C30.2551 9.86999 27.9001 9.31499 24.9601 7.94999C20.1601 5.69999 16.8901 4.88999 14.5051 5.38499C12.4651 5.81999 10.6651 7.13999 9.64511 8.96999C8.86511 10.35 8.56511 11.715 8.37011 14.61C8.11511 18.645 8.62511 25.05 9.52511 28.755C9.99011 30.675 10.0051 31.695 9.60011 32.37C9.43511 32.64 8.80511 33.48 8.22011 34.245C6.97511 35.82 6.09011 37.05 6.21011 37.05C6.25511 37.05 6.67511 36.675 7.15511 36.21C8.17511 35.22 10.4101 33.405 11.4751 32.7C11.8951 32.43 12.3901 32.085 12.6001 31.95C13.3501 31.44 16.2301 29.97 17.4301 29.445C24.2101 26.595 31.4701 25.305 39.3001 25.56C42.8251 25.68 44.3551 25.83 47.4001 26.415C55.8151 27.99 62.8201 31.38 67.9351 36.345L69.0601 37.425L68.4751 36.6C67.7401 35.58 66.4651 33.93 65.5351 32.85C64.2901 31.38 64.1401 30.78 64.5901 29.07C65.0701 27.18 65.8651 23.4 66.1801 21.45C66.6601 18.57 66.6601 14.43 66.1951 12.6C65.5351 9.98999 64.2901 7.84499 62.4301 6.13499C60.1651 4.04999 57.1051 3.19499 54.1801 3.82499Z" fill="url(#paint0_linear_64_82)"/>
<path d="M34.3502 29.64C34.0652 29.67 32.9852 29.775 31.9652 29.865C26.4902 30.33 21.7052 31.38 17.5502 33.03C15.7952 33.72 13.2002 35.1 12.5702 35.67C11.8952 36.27 11.8352 36.81 12.2852 37.92C12.5852 38.625 13.2002 40.215 14.0702 42.525C15.3752 45.96 16.3952 48.51 17.2952 50.64C17.7302 51.69 19.9652 56.1 21.0302 58.05C21.4952 58.89 22.1852 60.135 22.7552 61.155C23.0402 61.665 23.4452 62.115 23.8952 62.415L24.6002 62.88L24.9752 62.445C25.3502 62.04 26.3552 60.06 26.7602 58.95C27.0602 58.14 28.6352 54.3 28.9802 53.55C29.1452 53.175 29.3702 52.635 29.4752 52.335C29.5802 52.035 30.0602 51 30.5402 50.025C31.2452 48.6 31.6202 48.03 32.5202 47.085C34.9052 44.535 37.3952 44.115 39.1502 45.93C40.0502 46.875 40.5602 48.27 40.8752 50.685C41.2802 53.715 41.1602 57.9 40.4702 66.3C40.3352 68.04 40.3352 68.865 40.4702 70.065C40.7852 72.735 41.2052 72.9 42.9452 71.07C45.8852 68.01 50.2502 61.53 53.5952 55.275C54.3452 53.865 56.1452 50.19 57.1802 48C57.5102 47.295 57.9302 46.38 58.1252 45.975C58.4402 45.285 58.9052 44.25 60.0002 41.7C60.2402 41.16 60.8402 39.81 61.3352 38.7C61.9802 37.26 62.2502 36.495 62.2502 36.06C62.2502 35.475 62.2052 35.4 61.5452 34.98C61.1402 34.725 60.4952 34.395 60.0752 34.23C59.6702 34.08 58.5902 33.645 57.6752 33.27C51.5402 30.765 44.9402 29.52 37.9952 29.58C36.2852 29.58 34.6352 29.625 34.3502 29.64Z" fill="url(#paint1_linear_64_82)"/>
<path d="M113.88 32.46C113.88 34.0867 113.507 35.58 112.76 36.94C112.013 38.2733 110.867 39.3533 109.32 40.18C107.773 41.0067 105.853 41.42 103.56 41.42H99.32V51.5H92.48V23.42H103.56C105.8 23.42 107.693 23.8067 109.24 24.58C110.787 25.3533 111.947 26.42 112.72 27.78C113.493 29.14 113.88 30.7 113.88 32.46ZM103.04 35.98C104.347 35.98 105.32 35.6733 105.96 35.06C106.6 34.4467 106.92 33.58 106.92 32.46C106.92 31.34 106.6 30.4733 105.96 29.86C105.32 29.2467 104.347 28.94 103.04 28.94H99.32V35.98H103.04ZM124.281 32.9C125.081 31.6733 126.081 30.7133 127.281 30.02C128.481 29.3 129.814 28.94 131.281 28.94V36.18H129.401C127.694 36.18 126.414 36.5533 125.561 37.3C124.708 38.02 124.281 39.3 124.281 41.14V51.5H117.441V29.18H124.281V32.9ZM144.71 51.82C142.524 51.82 140.55 51.3533 138.79 50.42C137.057 49.4867 135.684 48.1533 134.67 46.42C133.684 44.6867 133.19 42.66 133.19 40.34C133.19 38.0467 133.697 36.0333 134.71 34.3C135.724 32.54 137.11 31.1933 138.87 30.26C140.63 29.3267 142.604 28.86 144.79 28.86C146.977 28.86 148.95 29.3267 150.71 30.26C152.47 31.1933 153.857 32.54 154.87 34.3C155.884 36.0333 156.39 38.0467 156.39 40.34C156.39 42.6333 155.87 44.66 154.83 46.42C153.817 48.1533 152.417 49.4867 150.63 50.42C148.87 51.3533 146.897 51.82 144.71 51.82ZM144.71 45.9C146.017 45.9 147.124 45.42 148.03 44.46C148.964 43.5 149.43 42.1267 149.43 40.34C149.43 38.5533 148.977 37.18 148.07 36.22C147.19 35.26 146.097 34.78 144.79 34.78C143.457 34.78 142.35 35.26 141.47 36.22C140.59 37.1533 140.15 38.5267 140.15 40.34C140.15 42.1267 140.577 43.5 141.43 44.46C142.31 45.42 143.404 45.9 144.71 45.9Z" fill="#434041"/>
<path d="M170.539 23.42C173.499 23.42 176.086 24.0067 178.299 25.18C180.512 26.3533 182.219 28.0067 183.419 30.14C184.646 32.2467 185.259 34.6867 185.259 37.46C185.259 40.2067 184.646 42.6467 183.419 44.78C182.219 46.9133 180.499 48.5667 178.259 49.74C176.046 50.9133 173.472 51.5 170.539 51.5H160.019V23.42H170.539ZM170.099 45.58C172.686 45.58 174.699 44.8733 176.139 43.46C177.579 42.0467 178.299 40.0467 178.299 37.46C178.299 34.8733 177.579 32.86 176.139 31.42C174.699 29.98 172.686 29.26 170.099 29.26H166.859V45.58H170.099ZM210.122 39.98C210.122 40.62 210.082 41.2867 210.002 41.98H194.522C194.628 43.3667 195.068 44.4333 195.842 45.18C196.642 45.9 197.615 46.26 198.762 46.26C200.468 46.26 201.655 45.54 202.322 44.1H209.602C209.228 45.5667 208.548 46.8867 207.562 48.06C206.602 49.2333 205.388 50.1533 203.922 50.82C202.455 51.4867 200.815 51.82 199.002 51.82C196.815 51.82 194.868 51.3533 193.162 50.42C191.455 49.4867 190.122 48.1533 189.162 46.42C188.202 44.6867 187.722 42.66 187.722 40.34C187.722 38.02 188.188 35.9933 189.122 34.26C190.082 32.5267 191.415 31.1933 193.122 30.26C194.828 29.3267 196.788 28.86 199.002 28.86C201.162 28.86 203.082 29.3133 204.762 30.22C206.442 31.1267 207.748 32.42 208.682 34.1C209.642 35.78 210.122 37.74 210.122 39.98ZM203.122 38.18C203.122 37.0067 202.722 36.0733 201.922 35.38C201.122 34.6867 200.122 34.34 198.922 34.34C197.775 34.34 196.802 34.6733 196.002 35.34C195.228 36.0067 194.748 36.9533 194.562 38.18H203.122ZM227.33 28.94C229.943 28.94 232.023 29.7933 233.57 31.5C235.143 33.18 235.93 35.5 235.93 38.46V51.5H229.13V39.38C229.13 37.8867 228.743 36.7267 227.97 35.9C227.197 35.0733 226.157 34.66 224.85 34.66C223.543 34.66 222.503 35.0733 221.73 35.9C220.957 36.7267 220.57 37.8867 220.57 39.38V51.5H213.73V29.18H220.57V32.14C221.263 31.1533 222.197 30.38 223.37 29.82C224.543 29.2333 225.863 28.94 227.33 28.94ZM253.123 45.7V51.5H249.643C247.163 51.5 245.23 50.9 243.843 49.7C242.456 48.4733 241.763 46.4867 241.763 43.74V34.86H239.043V29.18H241.763V23.74H248.603V29.18H253.083V34.86H248.603V43.82C248.603 44.4867 248.763 44.9667 249.083 45.26C249.403 45.5533 249.936 45.7 250.683 45.7H253.123ZM255.573 40.3C255.573 38.0067 256 35.9933 256.853 34.26C257.733 32.5267 258.92 31.1933 260.413 30.26C261.906 29.3267 263.573 28.86 265.413 28.86C266.986 28.86 268.36 29.18 269.533 29.82C270.733 30.46 271.653 31.3 272.293 32.34V29.18H279.133V51.5H272.293V48.34C271.626 49.38 270.693 50.22 269.493 50.86C268.32 51.5 266.946 51.82 265.373 51.82C263.56 51.82 261.906 51.3533 260.413 50.42C258.92 49.46 257.733 48.1133 256.853 46.38C256 44.62 255.573 42.5933 255.573 40.3ZM272.293 40.34C272.293 38.6333 271.813 37.2867 270.853 36.3C269.92 35.3133 268.773 34.82 267.413 34.82C266.053 34.82 264.893 35.3133 263.933 36.3C263 37.26 262.533 38.5933 262.533 40.3C262.533 42.0067 263 43.3667 263.933 44.38C264.893 45.3667 266.053 45.86 267.413 45.86C268.773 45.86 269.92 45.3667 270.853 44.38C271.813 43.3933 272.293 42.0467 272.293 40.34ZM290.922 21.9V51.5H284.082V21.9H290.922Z" fill="url(#paint2_linear_64_82)"/>
<defs>
<linearGradient id="paint0_linear_64_82" x1="6.19922" y1="20.5235" x2="69.0601" y2="20.5235" gradientUnits="userSpaceOnUse">
<stop stop-color="#5C4EFF"/>
<stop offset="1" stop-color="#B942FF"/>
</linearGradient>
<linearGradient id="paint1_linear_64_82" x1="11.9958" y1="50.9308" x2="62.2502" y2="50.9308" gradientUnits="userSpaceOnUse">
<stop stop-color="#5C4EFF"/>
<stop offset="1" stop-color="#B942FF"/>
</linearGradient>
<linearGradient id="paint2_linear_64_82" x1="90" y1="37.5" x2="294" y2="37.5" gradientUnits="userSpaceOnUse">
<stop stop-color="#5C4EFF"/>
<stop offset="1" stop-color="#B942FF"/>
</linearGradient>
</defs>
</svg>
